<?xml version="1.0" encoding="utf-8"?>
<!-- Svg Vector Icons : http://www.onlinewebfonts.com/icon -->
<!DOCTYPE svg PUBLIC "-//W3C//DTD SVG 1.1//EN" "http://www.w3.org/Graphics/SVG/1.1/DTD/svg11.dtd">
<svg version="1.1" xmlns="http://www.w3.org/2000/svg" xmlns:xlink="http://www.w3.org/1999/xlink" x="0px" y="0px" viewBox="0 0 1000 1000" enable-background="new 0 0 1000 1000" xml:space="preserve">
<metadata> Svg Vector Icons : http://www.onlinewebfonts.com/icon </metadata>
<g><g transform="translate(0.000000,511.000000) scale(0.100000,-0.100000)"><path d="M4498.4,4545.4c-1451.6-81.4-2773.9-534.2-3605.1-1236c-378.5-321-670.7-757-747.4-1111.5c-24-115-21.6-143.7,14.4-220.4c24-47.9,71.9-107.8,105.4-131.7c62.3-40.7,273.1-43.1,4639.9-50.3c2517.5-4.8,4620.7,0,4675.8,7.2c220.4,31.1,316.2,198.8,253.9,436c-186.8,716.2-977.3,1415.7-2079.2,1839.7C6814.7,4440,5648.2,4607.7,4498.4,4545.4z M3712.7,3793.3c74.2-88.6,69.5-170.1-14.4-256.3c-67.1-67.1-122.2-81.5-265.9-69.5c-148.5,9.6-241.9,141.3-191.6,263.5c43.1,105.4,129.3,146.1,285,136.5C3631.3,3860.3,3667.2,3845.9,3712.7,3793.3z M6778.8,3793.3c74.2-88.6,69.5-170.1-14.4-256.3c-172.5-172.5-527-38.3-471.9,182C6333.3,3879.5,6659.1,3929.8,6778.8,3793.3z M2115,2976.4c134.1-69.4,158.1-206,57.5-306.6c-117.4-117.4-337.8-105.4-440.7,24c-62.3,79-59.9,129.4,2.4,208.4C1822.8,3014.8,1983.3,3045.9,2115,2976.4z M5212.2,2916.5c52.7-59.9,64.7-91,52.7-141.3c-47.9-189.2-321-253.9-476.7-110.2c-160.5,148.5-14.4,359.3,234.7,337.8C5121.2,2995.6,5154.7,2981.2,5212.2,2916.5z M8247.2,2976.4c136.5-69.4,158.1-206,50.3-309c-129.3-124.6-371.3-93.4-455.1,59.9C7741.8,2909.4,8031.6,3086.6,8247.2,2976.4z"/><path d="M1580.8,1476.9c-64.7-14.4-251.5-76.7-416.8-143.7c-215.6-86.3-356.9-126.9-493.4-141.3c-232.4-26.3-366.5-98.2-469.5-253.9c-93.4-143.7-103-201.2-93.4-577.3c7.2-297,9.6-316.2,79-428.8c40.7-62.3,119.8-148.5,177.3-189.2c93.4-67.1,117.4-71.9,297-69.5c179.7,0,222.8,12,505.4,126.9c517.4,208.4,598.8,208.4,1128.2-4.8c294.6-117.4,323.4-124.6,527-122.1c203.6,0,232.4,7.2,515,122.1c527,213.2,615.6,213.2,1140.2,0c294.6-117.4,318.6-124.6,524.6-124.6c203.6,2.4,232.4,7.2,524.6,127c515,210.8,606.1,210.8,1130.6-2.4c294.6-117.4,318.6-124.6,524.6-124.6c203.6,2.4,232.4,7.2,524.6,127c515,210.8,601.2,210.8,1130.6,0c395.2-155.7,548.6-172.5,735.4-81.4c237.2,115,325.8,301.8,328.2,699.5c0,309-33.5,435.9-155.7,579.7c-105.4,122.2-218,174.9-433.6,198.8c-119.8,12-275.5,57.5-483.9,138.9c-527,208.4-606,208.4-1121-2.4c-292.2-119.8-321-124.5-524.6-127c-206,0-230,7.2-524.6,124.6c-524.6,213.2-613.2,213.2-1140.2,0c-282.6-117.4-311.4-122.1-515-122.1c-203.6,0-232.4,4.8-534.2,124.5c-522.2,206-608.4,208.4-1070.7,23.9c-553.3-220.4-591.7-220.4-1233.6,24C1877.9,1486.5,1746.1,1508.1,1580.8,1476.9z"/><path d="M510.1-688.5C359.2-736.4,237-846.6,160.4-999.9c-57.5-122.1-62.3-153.3-59.9-424c2.4-241.9,12-309,52.7-395.2c62.3-129.3,230-277.9,352.1-313.8c71.9-21.6,1195.3-28.8,4512.9-28.8h4417.1l124.6,62.3c148.5,74.2,253.9,194,306.6,352.1c52.7,160.5,38.3,615.6-24,735.4c-98.2,189.2-282.6,323.4-474.3,349.7l-103,14.4l-574.9-445.5c-316.2-244.3-603.6-450.4-639.6-459.9c-38.3-7.2-95.8-7.2-131.7,2.4c-38.3,7.2-282.6,182.1-546.1,385.7c-656.3,512.6-656.3,512.6-852.7,512.6c-88.6,0-189.2-9.6-225.2-24c-33.5-12-301.8-208.4-594.1-436C5126-1558,5047-1598.8,4912.8-1534.1c-43.1,21.6-304.2,213.2-582.1,428.8c-275.5,213.2-529.4,404.8-562.9,421.6c-81.4,40.7-378.5,40.7-459.9-2.4c-35.9-19.2-297-213.2-579.7-431.2c-282.7-218-543.8-409.6-579.7-424c-134.1-50.3-206-9.6-792.9,445.5C730.5-611.9,742.4-616.7,510.1-688.5z"/><path d="M241.8-2535.4c-115-59.9-138.9-143.7-138.9-469.5c0-172.5,14.4-344.9,33.5-416.8C261-3891.2,689.7-4260,1180.8-4317.5c134.1-16.8,1499.5-24,3952.4-19.2l3748.8,7.2l158.1,55.1c323.4,107.8,586.9,337.8,730.6,637.2c107.8,222.8,134.2,376.1,124.6,699.5l-7.2,277.9l-88.6,81.5l-91,81.4H5008.6C895.8-2499.4,299.3-2504.2,241.8-2535.4z"/></g></g>
</svg>